<?xml version="1.0" encoding="UTF-8"?>
<svg width="257px" height="160px" viewBox="0 0 257 160" version="1.1" xmlns="http://www.w3.org/2000/svg" xmlns:xlink="http://www.w3.org/1999/xlink">
    <g stroke="none" stroke-width="1" fill="none" fill-rule="evenodd">
        <g id="icon" fill="#000000" fill-rule="nonzero">
            <path d="M125,5.115 C125,2.3 128.95,0 133.825,0 C138.7,0 142.65,2.3 142.65,5.115 L142.65,154.885 C142.65,157.71 138.7,160 133.825,160 C128.95,160 125,157.7 125,154.885 L125,5.115 Z" id="Path"></path>
            <path d="M128.092,71.998 L156.472,71.998 C169.467,71.998 180.002,61.464 180.002,48.468 C180.002,35.472 169.468,24.938 156.472,24.938 L114.237,24.938 C112.092032,23.0466774 109.331715,22.0012051 106.472,21.997 L91.766,21.997 C85.268,22 80,27.266 80,33.763 C80,40.26 85.267,45.527 91.765,45.527 L106.471,45.527 C109.331,45.523 112.091,44.477 114.236,42.587 L156.471,42.587 C159.719539,42.5870001 162.353,45.2204612 162.353,48.469 C162.353,51.7175388 159.719539,54.3509999 156.471,54.351 L115.293,54.351 C102.298,54.351 91.763,64.885 91.763,77.881 C91.763,90.877 102.297,101.411 115.293,101.411 L144.705,101.411 C147.953539,101.411 150.587,104.044461 150.587,107.293 C150.587,110.541539 147.953539,113.175 144.705,113.175 L118.235,113.175 C115.051187,113.127063 112.088493,114.798155 110.482587,117.547706 C108.876682,120.297257 108.876682,123.698743 110.482587,126.448294 C112.088493,129.197845 115.051187,130.868937 118.235,130.822004 L144.705,130.822004 C157.7,130.822004 168.235,120.287 168.235,107.291 C168.235,94.295 157.701,83.761 144.705,83.761 L115.293,83.761 C112.044461,83.761 109.411,81.1275389 109.411,77.879 C109.411,74.6304611 112.044461,71.997 115.293,71.997 L128.091,71.997 L128.092,71.998 Z M90.942,32.882 C89.3177306,32.882 88.001,31.5652694 88.001,29.941 C88.001,28.3167306 89.3177306,27 90.942,27 C92.5662694,27 93.883,28.3167306 93.883,29.941 C93.8780584,31.5632181 92.5642181,32.8770584 90.942,32.882 L90.942,32.882 Z" id="Shape"></path>
            <path d="M61.062,26 C63.3966182,26.0089978 65.613528,27.0261296 67.143,28.79 C69.93,32.087 69.423,36.906 66.13,39.696 L19.762,78.246 L66.13,117.05 C69.424,119.85 69.93,124.65 67.397,128.21 C65.8688017,129.976256 63.6525678,130.99689 61.317,131.01 C59.29,131.01 57.77,130.503 56.25,129.235 L2.788,84.597 C1.014,83.075 0.001,81.047 0.001,78.51 C0.001,75.973 1.014,73.945 2.788,72.423 L55.988,27.785 C57.508,26.517 59.282,26.01 61.055,26.01 L61.054,26.01 L61.062,26 Z M194.95,26 C196.737,26 198.525,26.507 200.057,27.775 L254.19,72.413 C255.963961,73.9393286 256.989022,76.1598089 257,78.5 C256.989418,80.8402791 255.964284,83.0609157 254.19,84.587 L200.312,129.225 C198.78,130.239 196.992,131 195.205,131 C192.652,131 190.609,129.986 189.077,128.2 C186.277,124.903 186.779,120.084 190.097,117.294 L236.57,78.5 L189.842,39.696 C186.522,36.896 186.012,32.096 188.822,28.79 C190.369225,27.0237075 192.600886,26.0074947 194.949,26 L194.949,26 L194.95,26 Z" id="Shape"></path>
        </g>
    </g>
</svg>
